<mxfile host="app.diagrams.net" modified="2023-12-26T13:23:20.551Z" agent="Mozilla/5.0 (Windows NT 10.0; Win64; x64) AppleWebKit/537.36 (KHTML, like Gecko) Chrome/120.0.0.0 Safari/537.36" etag="OoyvdE2Uj8b6ABrNlPnx" version="22.1.11" type="github">
  <diagram name="Page-1" id="I2i32IGnM0A3PnKI_KNA">
    <mxGraphModel dx="2333" dy="1160" grid="0" gridSize="10" guides="1" tooltips="1" connect="1" arrows="1" fold="1" page="1" pageScale="1" pageWidth="827" pageHeight="1169" math="0" shadow="1">
      <root>
        <mxCell id="0" />
        <mxCell id="1" parent="0" />
        <mxCell id="j1IcVdMMKJfB7cdgmW3q-2" value="" style="strokeWidth=3;html=1;shape=mxgraph.flowchart.start_2;whiteSpace=wrap;fillColor=#fad7ac;strokeColor=#b46504;shadow=1;" vertex="1" parent="1">
          <mxGeometry x="364" y="10" width="70" height="70" as="geometry" />
        </mxCell>
        <mxCell id="j1IcVdMMKJfB7cdgmW3q-3" value="" style="rounded=1;whiteSpace=wrap;html=1;fillColor=#fad7ac;strokeColor=#b46504;strokeWidth=3;shadow=1;" vertex="1" parent="1">
          <mxGeometry x="337" y="130" width="120" height="60" as="geometry" />
        </mxCell>
        <mxCell id="j1IcVdMMKJfB7cdgmW3q-24" style="edgeStyle=orthogonalEdgeStyle;rounded=0;orthogonalLoop=1;jettySize=auto;html=1;exitX=0;exitY=0.5;exitDx=0;exitDy=0;entryX=0.5;entryY=0;entryDx=0;entryDy=0;strokeWidth=2;flowAnimation=1;strokeColor=#3D005B;" edge="1" parent="1" source="j1IcVdMMKJfB7cdgmW3q-4" target="j1IcVdMMKJfB7cdgmW3q-12">
          <mxGeometry relative="1" as="geometry" />
        </mxCell>
        <mxCell id="j1IcVdMMKJfB7cdgmW3q-4" value="" style="verticalLabelPosition=bottom;verticalAlign=top;html=1;shape=hexagon;perimeter=hexagonPerimeter2;arcSize=6;size=0.27;fillColor=#fad7ac;strokeColor=#b46504;strokeWidth=3;shadow=1;" vertex="1" parent="1">
          <mxGeometry x="337" y="250" width="120" height="50" as="geometry" />
        </mxCell>
        <mxCell id="j1IcVdMMKJfB7cdgmW3q-18" style="edgeStyle=orthogonalEdgeStyle;rounded=0;orthogonalLoop=1;jettySize=auto;html=1;entryX=0.5;entryY=0;entryDx=0;entryDy=0;strokeWidth=2;flowAnimation=1;strokeColor=#3D005B;" edge="1" parent="1" source="j1IcVdMMKJfB7cdgmW3q-5" target="j1IcVdMMKJfB7cdgmW3q-6">
          <mxGeometry relative="1" as="geometry" />
        </mxCell>
        <mxCell id="j1IcVdMMKJfB7cdgmW3q-5" value="" style="rounded=1;whiteSpace=wrap;html=1;fillColor=#fad7ac;strokeColor=#b46504;strokeWidth=3;shadow=1;" vertex="1" parent="1">
          <mxGeometry x="337" y="360" width="120" height="60" as="geometry" />
        </mxCell>
        <mxCell id="j1IcVdMMKJfB7cdgmW3q-19" style="edgeStyle=orthogonalEdgeStyle;rounded=0;orthogonalLoop=1;jettySize=auto;html=1;entryX=0.5;entryY=0;entryDx=0;entryDy=0;strokeWidth=2;flowAnimation=1;strokeColor=#3D005B;" edge="1" parent="1" source="j1IcVdMMKJfB7cdgmW3q-6" target="j1IcVdMMKJfB7cdgmW3q-7">
          <mxGeometry relative="1" as="geometry" />
        </mxCell>
        <mxCell id="j1IcVdMMKJfB7cdgmW3q-6" value="" style="verticalLabelPosition=bottom;verticalAlign=top;html=1;shape=hexagon;perimeter=hexagonPerimeter2;arcSize=6;size=0.27;fillColor=#fad7ac;strokeColor=#b46504;strokeWidth=3;shadow=1;" vertex="1" parent="1">
          <mxGeometry x="284" y="480" width="225" height="50" as="geometry" />
        </mxCell>
        <mxCell id="j1IcVdMMKJfB7cdgmW3q-20" style="edgeStyle=orthogonalEdgeStyle;rounded=0;orthogonalLoop=1;jettySize=auto;html=1;entryX=0.5;entryY=0;entryDx=0;entryDy=0;strokeWidth=2;flowAnimation=1;strokeColor=#3D005B;" edge="1" parent="1" source="j1IcVdMMKJfB7cdgmW3q-7" target="j1IcVdMMKJfB7cdgmW3q-8">
          <mxGeometry relative="1" as="geometry" />
        </mxCell>
        <mxCell id="j1IcVdMMKJfB7cdgmW3q-47" style="edgeStyle=elbowEdgeStyle;rounded=0;orthogonalLoop=1;jettySize=auto;html=1;entryX=0;entryY=0.5;entryDx=0;entryDy=0;exitX=0;exitY=0.5;exitDx=0;exitDy=0;strokeWidth=2;flowAnimation=1;strokeColor=#3D005B;" edge="1" parent="1" source="j1IcVdMMKJfB7cdgmW3q-7" target="j1IcVdMMKJfB7cdgmW3q-11">
          <mxGeometry relative="1" as="geometry">
            <mxPoint x="257.17391304347825" y="618.324706694272" as="sourcePoint" />
            <mxPoint x="257" y="1070" as="targetPoint" />
            <Array as="points">
              <mxPoint x="143" y="830" />
            </Array>
          </mxGeometry>
        </mxCell>
        <mxCell id="j1IcVdMMKJfB7cdgmW3q-7" value="" style="verticalLabelPosition=bottom;verticalAlign=top;html=1;shape=hexagon;perimeter=hexagonPerimeter2;arcSize=6;size=0.27;fillColor=#fad7ac;strokeColor=#b46504;strokeWidth=3;shadow=1;" vertex="1" parent="1">
          <mxGeometry x="231" y="585" width="330" height="50" as="geometry" />
        </mxCell>
        <mxCell id="j1IcVdMMKJfB7cdgmW3q-8" value="" style="rounded=1;whiteSpace=wrap;html=1;fillColor=#fad7ac;strokeColor=#b46504;strokeWidth=3;shadow=1;" vertex="1" parent="1">
          <mxGeometry x="218.5" y="690" width="357" height="60" as="geometry" />
        </mxCell>
        <mxCell id="j1IcVdMMKJfB7cdgmW3q-22" style="edgeStyle=orthogonalEdgeStyle;rounded=0;orthogonalLoop=1;jettySize=auto;html=1;exitX=0.5;exitY=1;exitDx=0;exitDy=0;exitPerimeter=0;entryX=0.5;entryY=0;entryDx=0;entryDy=0;strokeWidth=2;flowAnimation=1;strokeColor=#3D005B;" edge="1" parent="1" source="j1IcVdMMKJfB7cdgmW3q-9" target="j1IcVdMMKJfB7cdgmW3q-10">
          <mxGeometry relative="1" as="geometry" />
        </mxCell>
        <mxCell id="j1IcVdMMKJfB7cdgmW3q-9" value="" style="strokeWidth=3;html=1;shape=mxgraph.flowchart.decision;whiteSpace=wrap;fillColor=#fad7ac;strokeColor=#b46504;shadow=1;" vertex="1" parent="1">
          <mxGeometry x="364" y="800" width="66" height="66" as="geometry" />
        </mxCell>
        <mxCell id="j1IcVdMMKJfB7cdgmW3q-25" style="edgeStyle=orthogonalEdgeStyle;rounded=0;orthogonalLoop=1;jettySize=auto;html=1;exitX=0.5;exitY=1;exitDx=0;exitDy=0;entryX=1;entryY=0.5;entryDx=0;entryDy=0;strokeWidth=2;flowAnimation=1;strokeColor=#3D005B;" edge="1" parent="1" source="j1IcVdMMKJfB7cdgmW3q-10" target="j1IcVdMMKJfB7cdgmW3q-6">
          <mxGeometry relative="1" as="geometry">
            <Array as="points">
              <mxPoint x="397" y="1010" />
              <mxPoint x="668" y="1010" />
              <mxPoint x="668" y="505" />
            </Array>
          </mxGeometry>
        </mxCell>
        <mxCell id="j1IcVdMMKJfB7cdgmW3q-10" value="" style="rounded=1;whiteSpace=wrap;html=1;fillColor=#fad7ac;strokeColor=#b46504;strokeWidth=3;shadow=1;" vertex="1" parent="1">
          <mxGeometry x="282" y="930" width="230" height="60" as="geometry" />
        </mxCell>
        <mxCell id="j1IcVdMMKJfB7cdgmW3q-45" style="edgeStyle=elbowEdgeStyle;rounded=0;orthogonalLoop=1;jettySize=auto;html=1;entryX=1;entryY=0.5;entryDx=0;entryDy=0;strokeWidth=2;flowAnimation=1;strokeColor=#3D005B;" edge="1" parent="1" source="j1IcVdMMKJfB7cdgmW3q-11" target="j1IcVdMMKJfB7cdgmW3q-4">
          <mxGeometry relative="1" as="geometry">
            <Array as="points">
              <mxPoint x="714" y="671" />
            </Array>
          </mxGeometry>
        </mxCell>
        <mxCell id="j1IcVdMMKJfB7cdgmW3q-11" value="" style="rounded=1;whiteSpace=wrap;html=1;fillColor=#fad7ac;strokeColor=#b46504;strokeWidth=3;shadow=1;" vertex="1" parent="1">
          <mxGeometry x="282" y="1040" width="230" height="60" as="geometry" />
        </mxCell>
        <mxCell id="j1IcVdMMKJfB7cdgmW3q-12" value="" style="ellipse;shape=doubleEllipse;whiteSpace=wrap;html=1;aspect=fixed;fillColor=#fad7ac;strokeColor=#b46504;strokeWidth=3;shadow=1;" vertex="1" parent="1">
          <mxGeometry x="113" y="330" width="50" height="50" as="geometry" />
        </mxCell>
        <mxCell id="j1IcVdMMKJfB7cdgmW3q-14" style="edgeStyle=orthogonalEdgeStyle;rounded=0;orthogonalLoop=1;jettySize=auto;html=1;entryX=0.518;entryY=-0.045;entryDx=0;entryDy=0;entryPerimeter=0;strokeWidth=2;flowAnimation=1;strokeColor=#3D005B;" edge="1" parent="1" source="j1IcVdMMKJfB7cdgmW3q-2" target="j1IcVdMMKJfB7cdgmW3q-3">
          <mxGeometry relative="1" as="geometry" />
        </mxCell>
        <mxCell id="j1IcVdMMKJfB7cdgmW3q-16" style="edgeStyle=orthogonalEdgeStyle;rounded=0;orthogonalLoop=1;jettySize=auto;html=1;entryX=0.499;entryY=-0.064;entryDx=0;entryDy=0;entryPerimeter=0;strokeWidth=2;flowAnimation=1;strokeColor=#3D005B;" edge="1" parent="1" source="j1IcVdMMKJfB7cdgmW3q-3" target="j1IcVdMMKJfB7cdgmW3q-4">
          <mxGeometry relative="1" as="geometry" />
        </mxCell>
        <mxCell id="j1IcVdMMKJfB7cdgmW3q-17" style="edgeStyle=orthogonalEdgeStyle;rounded=0;orthogonalLoop=1;jettySize=auto;html=1;exitX=0.5;exitY=1;exitDx=0;exitDy=0;entryX=0.497;entryY=-0.038;entryDx=0;entryDy=0;entryPerimeter=0;strokeWidth=2;flowAnimation=1;strokeColor=#3D005B;" edge="1" parent="1" source="j1IcVdMMKJfB7cdgmW3q-4" target="j1IcVdMMKJfB7cdgmW3q-5">
          <mxGeometry relative="1" as="geometry" />
        </mxCell>
        <mxCell id="j1IcVdMMKJfB7cdgmW3q-21" style="edgeStyle=orthogonalEdgeStyle;rounded=0;orthogonalLoop=1;jettySize=auto;html=1;exitX=0.5;exitY=1;exitDx=0;exitDy=0;entryX=0.487;entryY=-0.029;entryDx=0;entryDy=0;entryPerimeter=0;strokeWidth=2;flowAnimation=1;strokeColor=#3D005B;" edge="1" parent="1" source="j1IcVdMMKJfB7cdgmW3q-8" target="j1IcVdMMKJfB7cdgmW3q-9">
          <mxGeometry relative="1" as="geometry" />
        </mxCell>
        <mxCell id="j1IcVdMMKJfB7cdgmW3q-37" style="edgeStyle=orthogonalEdgeStyle;rounded=0;orthogonalLoop=1;jettySize=auto;html=1;exitX=1;exitY=0.5;exitDx=0;exitDy=0;entryX=1;entryY=0.5;entryDx=0;entryDy=0;entryPerimeter=0;strokeWidth=2;flowAnimation=1;strokeColor=#3D005B;" edge="1" parent="1" source="j1IcVdMMKJfB7cdgmW3q-7" target="j1IcVdMMKJfB7cdgmW3q-9">
          <mxGeometry relative="1" as="geometry">
            <Array as="points">
              <mxPoint x="623" y="610" />
              <mxPoint x="623" y="833" />
            </Array>
          </mxGeometry>
        </mxCell>
      </root>
    </mxGraphModel>
  </diagram>
</mxfile>
